<svg width="297" height="51" viewBox="0 0 297 51" fill="none" xmlns="http://www.w3.org/2000/svg">
<rect width="297" height="51" rx="6" fill="#3596F5"/>
<path d="M45.9375 27.3906C45.7969 28.5938 45.3516 29.5234 44.6016 30.1797C43.8568 30.8307 42.8646 31.1562 41.625 31.1562C40.2812 31.1562 39.2031 30.6745 38.3906 29.7109C37.5833 28.7474 37.1797 27.4583 37.1797 25.8438V24.75C37.1797 23.6927 37.3672 22.763 37.7422 21.9609C38.1224 21.1589 38.6589 20.5443 39.3516 20.1172C40.0443 19.6849 40.8464 19.4688 41.7578 19.4688C42.9661 19.4688 43.9349 19.8073 44.6641 20.4844C45.3932 21.1562 45.8177 22.0885 45.9375 23.2812H44.4297C44.2995 22.375 44.0156 21.7188 43.5781 21.3125C43.1458 20.9062 42.5391 20.7031 41.7578 20.7031C40.7995 20.7031 40.0469 21.0573 39.5 21.7656C38.9583 22.474 38.6875 23.4818 38.6875 24.7891V25.8906C38.6875 27.125 38.9453 28.1068 39.4609 28.8359C39.9766 29.5651 40.6979 29.9297 41.625 29.9297C42.4583 29.9297 43.0964 29.7422 43.5391 29.3672C43.987 28.987 44.2839 28.3281 44.4297 27.3906H45.9375ZM52.6328 29.0859L55.5078 22.5469H57.3125V31H55.8672V24.8516L53.1328 31H52.1328L49.3438 24.7188V31H47.8984V22.5469H49.7734L52.6328 29.0859ZM59.2578 26.6953C59.2578 25.8672 59.4193 25.1224 59.7422 24.4609C60.0703 23.7995 60.5234 23.2891 61.1016 22.9297C61.6849 22.5703 62.349 22.3906 63.0938 22.3906C64.2448 22.3906 65.1745 22.7891 65.8828 23.5859C66.5964 24.3828 66.9531 25.4427 66.9531 26.7656V26.8672C66.9531 27.6901 66.7943 28.4297 66.4766 29.0859C66.1641 29.737 65.7135 30.2448 65.125 30.6094C64.5417 30.974 63.8698 31.1562 63.1094 31.1562C61.9635 31.1562 61.0339 30.7578 60.3203 29.9609C59.612 29.1641 59.2578 28.1094 59.2578 26.7969V26.6953ZM60.7109 26.8672C60.7109 27.8047 60.9271 28.5573 61.3594 29.125C61.7969 29.6927 62.3802 29.9766 63.1094 29.9766C63.8438 29.9766 64.4271 29.6901 64.8594 29.1172C65.2917 28.5391 65.5078 27.7318 65.5078 26.6953C65.5078 25.7682 65.2865 25.0182 64.8438 24.4453C64.4062 23.8672 63.8229 23.5781 63.0938 23.5781C62.3802 23.5781 61.8047 23.862 61.3672 24.4297C60.9297 24.9974 60.7109 25.8099 60.7109 26.8672ZM74.875 23.7188H72.0391V31H70.5938V23.7188H67.8125V22.5469H74.875V23.7188ZM83.4219 26.8672C83.4219 28.1536 83.1276 29.1901 82.5391 29.9766C81.9505 30.763 81.1536 31.1562 80.1484 31.1562C79.1224 31.1562 78.3151 30.8307 77.7266 30.1797V34.25H76.2812V22.5469H77.6016L77.6719 23.4844C78.2604 22.7552 79.0781 22.3906 80.125 22.3906C81.1406 22.3906 81.9427 22.7734 82.5312 23.5391C83.125 24.3047 83.4219 25.3698 83.4219 26.7344V26.8672ZM81.9766 26.7031C81.9766 25.75 81.7734 24.9974 81.3672 24.4453C80.9609 23.8932 80.4036 23.6172 79.6953 23.6172C78.8203 23.6172 78.1641 24.0052 77.7266 24.7812V28.8203C78.1589 29.5911 78.8203 29.9766 79.7109 29.9766C80.4036 29.9766 80.9531 29.7031 81.3594 29.1562C81.7708 28.6042 81.9766 27.7865 81.9766 26.7031ZM88.7734 31.1562C87.6276 31.1562 86.6953 30.7812 85.9766 30.0312C85.2578 29.276 84.8984 28.2682 84.8984 27.0078V26.7422C84.8984 25.9036 85.0573 25.1562 85.375 24.5C85.6979 23.8385 86.1458 23.3229 86.7188 22.9531C87.2969 22.5781 87.9219 22.3906 88.5938 22.3906C89.6927 22.3906 90.5469 22.7526 91.1562 23.4766C91.7656 24.2005 92.0703 25.237 92.0703 26.5859V27.1875H86.3438C86.3646 28.0208 86.6068 28.6953 87.0703 29.2109C87.5391 29.7214 88.1328 29.9766 88.8516 29.9766C89.362 29.9766 89.7943 29.8724 90.1484 29.6641C90.5026 29.4557 90.8125 29.1797 91.0781 28.8359L91.9609 29.5234C91.2526 30.612 90.1901 31.1562 88.7734 31.1562ZM88.5938 23.5781C88.0104 23.5781 87.5208 23.7917 87.125 24.2188C86.7292 24.6406 86.4844 25.2344 86.3906 26H90.625V25.8906C90.5833 25.1562 90.3854 24.5885 90.0312 24.1875C89.6771 23.7812 89.1979 23.5781 88.5938 23.5781ZM99.9375 23.7188H97.1016V31H95.6562V23.7188H92.875V22.5469H99.9375V23.7188ZM102.922 25.4609H105.117C106.076 25.4714 106.833 25.7214 107.391 26.2109C107.948 26.7005 108.227 27.3646 108.227 28.2031C108.227 29.0469 107.94 29.724 107.367 30.2344C106.794 30.7448 106.023 31 105.055 31H101.477V22.5469H102.922V25.4609ZM102.922 26.6406V29.8203H105.07C105.612 29.8203 106.031 29.6823 106.328 29.4062C106.625 29.125 106.773 28.7422 106.773 28.2578C106.773 27.7891 106.628 27.4062 106.336 27.1094C106.049 26.8073 105.646 26.651 105.125 26.6406H102.922ZM120.602 27.3984H119.547V31H118.094V22.5469H119.547V26.125H120.492L123.336 22.5469H125.086L121.742 26.6094L125.367 31H123.531L120.602 27.3984ZM126.742 31V22.5469H130.039C131.164 22.5469 132.026 22.7448 132.625 23.1406C133.229 23.5312 133.531 24.1068 133.531 24.8672C133.531 25.2578 133.414 25.612 133.18 25.9297C132.945 26.2422 132.599 26.4818 132.141 26.6484C132.651 26.7682 133.06 27.0026 133.367 27.3516C133.68 27.7005 133.836 28.1172 133.836 28.6016C133.836 29.3776 133.549 29.9714 132.977 30.3828C132.409 30.7943 131.604 31 130.562 31H126.742ZM128.188 27.2891V29.8359H130.578C131.182 29.8359 131.633 29.724 131.93 29.5C132.232 29.276 132.383 28.9609 132.383 28.5547C132.383 27.7109 131.763 27.2891 130.523 27.2891H128.188ZM128.188 26.1328H130.055C131.409 26.1328 132.086 25.737 132.086 24.9453C132.086 24.1536 131.445 23.7448 130.164 23.7188H128.188V26.1328ZM140.969 31C140.885 30.8333 140.818 30.5365 140.766 30.1094C140.094 30.8073 139.292 31.1562 138.359 31.1562C137.526 31.1562 136.841 30.9219 136.305 30.4531C135.773 29.9792 135.508 29.3802 135.508 28.6562C135.508 27.776 135.841 27.0938 136.508 26.6094C137.18 26.1198 138.122 25.875 139.336 25.875H140.742V25.2109C140.742 24.7057 140.591 24.3047 140.289 24.0078C139.987 23.7057 139.542 23.5547 138.953 23.5547C138.438 23.5547 138.005 23.6849 137.656 23.9453C137.307 24.2057 137.133 24.5208 137.133 24.8906H135.68C135.68 24.4688 135.828 24.0625 136.125 23.6719C136.427 23.276 136.833 22.9635 137.344 22.7344C137.859 22.5052 138.424 22.3906 139.039 22.3906C140.013 22.3906 140.776 22.6354 141.328 23.125C141.88 23.6094 142.167 24.2786 142.188 25.1328V29.0234C142.188 29.7995 142.286 30.4167 142.484 30.875V31H140.969ZM138.57 29.8984C139.023 29.8984 139.453 29.7812 139.859 29.5469C140.266 29.3125 140.56 29.0078 140.742 28.6328V26.8984H139.609C137.839 26.8984 136.953 27.4167 136.953 28.4531C136.953 28.9062 137.104 29.2604 137.406 29.5156C137.708 29.7708 138.096 29.8984 138.57 29.8984ZM151.594 26.8672C151.594 28.1536 151.299 29.1901 150.711 29.9766C150.122 30.763 149.326 31.1562 148.32 31.1562C147.294 31.1562 146.487 30.8307 145.898 30.1797V34.25H144.453V22.5469H145.773L145.844 23.4844C146.432 22.7552 147.25 22.3906 148.297 22.3906C149.312 22.3906 150.115 22.7734 150.703 23.5391C151.297 24.3047 151.594 25.3698 151.594 26.7344V26.8672ZM150.148 26.7031C150.148 25.75 149.945 24.9974 149.539 24.4453C149.133 23.8932 148.576 23.6172 147.867 23.6172C146.992 23.6172 146.336 24.0052 145.898 24.7812V28.8203C146.331 29.5911 146.992 29.9766 147.883 29.9766C148.576 29.9766 149.125 29.7031 149.531 29.1562C149.943 28.6042 150.148 27.7865 150.148 26.7031ZM159.094 23.7188H156.258V31H154.812V23.7188H152.031V22.5469H159.094V23.7188ZM165.969 22.5469H167.414V31H165.969V24.8359L162.07 31H160.625V22.5469H162.07V28.7188L165.969 22.5469ZM176.875 26.8672C176.875 28.1536 176.581 29.1901 175.992 29.9766C175.404 30.763 174.607 31.1562 173.602 31.1562C172.576 31.1562 171.768 30.8307 171.18 30.1797V34.25H169.734V22.5469H171.055L171.125 23.4844C171.714 22.7552 172.531 22.3906 173.578 22.3906C174.594 22.3906 175.396 22.7734 175.984 23.5391C176.578 24.3047 176.875 25.3698 176.875 26.7344V26.8672ZM175.43 26.7031C175.43 25.75 175.227 24.9974 174.82 24.4453C174.414 23.8932 173.857 23.6172 173.148 23.6172C172.273 23.6172 171.617 24.0052 171.18 24.7812V28.8203C171.612 29.5911 172.273 29.9766 173.164 29.9766C173.857 29.9766 174.406 29.7031 174.812 29.1562C175.224 28.6042 175.43 27.7865 175.43 26.7031ZM180.297 25.4609H182.492C183.451 25.4714 184.208 25.7214 184.766 26.2109C185.323 26.7005 185.602 27.3646 185.602 28.2031C185.602 29.0469 185.315 29.724 184.742 30.2344C184.169 30.7448 183.398 31 182.43 31H178.852V22.5469H180.297V25.4609ZM188.617 31H187.164V22.5469H188.617V31ZM180.297 26.6406V29.8203H182.445C182.987 29.8203 183.406 29.6823 183.703 29.4062C184 29.125 184.148 28.7422 184.148 28.2578C184.148 27.7891 184.003 27.4062 183.711 27.1094C183.424 26.8073 183.021 26.651 182.5 26.6406H180.297ZM202.016 31H200.57V27.3906H196.688V31H195.234V22.5469H196.688V26.2109H200.57V22.5469H202.016V31ZM209.562 31C209.479 30.8333 209.411 30.5365 209.359 30.1094C208.688 30.8073 207.885 31.1562 206.953 31.1562C206.12 31.1562 205.435 30.9219 204.898 30.4531C204.367 29.9792 204.102 29.3802 204.102 28.6562C204.102 27.776 204.435 27.0938 205.102 26.6094C205.773 26.1198 206.716 25.875 207.93 25.875H209.336V25.2109C209.336 24.7057 209.185 24.3047 208.883 24.0078C208.581 23.7057 208.135 23.5547 207.547 23.5547C207.031 23.5547 206.599 23.6849 206.25 23.9453C205.901 24.2057 205.727 24.5208 205.727 24.8906H204.273C204.273 24.4688 204.422 24.0625 204.719 23.6719C205.021 23.276 205.427 22.9635 205.938 22.7344C206.453 22.5052 207.018 22.3906 207.633 22.3906C208.607 22.3906 209.37 22.6354 209.922 23.125C210.474 23.6094 210.76 24.2786 210.781 25.1328V29.0234C210.781 29.7995 210.88 30.4167 211.078 30.875V31H209.562ZM207.164 29.8984C207.617 29.8984 208.047 29.7812 208.453 29.5469C208.859 29.3125 209.154 29.0078 209.336 28.6328V26.8984H208.203C206.432 26.8984 205.547 27.4167 205.547 28.4531C205.547 28.9062 205.698 29.2604 206 29.5156C206.302 29.7708 206.69 29.8984 207.164 29.8984ZM219.984 23.5781C219.469 23.5781 219.021 23.7422 218.641 24.0703C218.266 24.3984 218.078 24.7865 218.078 25.2344H216.703C216.703 24.75 216.857 24.2865 217.164 23.8438C217.471 23.401 217.88 23.0495 218.391 22.7891C218.901 22.5234 219.432 22.3906 219.984 22.3906C221.083 22.3906 221.971 22.7891 222.648 23.5859C223.331 24.3776 223.672 25.4141 223.672 26.6953V26.9375C223.672 27.7292 223.516 28.4531 223.203 29.1094C222.896 29.7604 222.461 30.2656 221.898 30.625C221.341 30.9792 220.703 31.1562 219.984 31.1562C219.047 31.1562 218.266 30.8646 217.641 30.2812C217.016 29.6979 216.703 28.9714 216.703 28.1016H218.078C218.078 28.6328 218.263 29.0807 218.633 29.4453C219.003 29.8047 219.453 29.9844 219.984 29.9844C220.604 29.9844 221.115 29.7448 221.516 29.2656C221.917 28.7865 222.148 28.1276 222.211 27.2891H219.039V26.1016H222.195C222.122 25.3411 221.891 24.7318 221.5 24.2734C221.109 23.8099 220.604 23.5781 219.984 23.5781ZM231.281 23.7188H228.445V31H227V23.7188H224.219V22.5469H231.281V23.7188ZM237.781 31C237.698 30.8333 237.63 30.5365 237.578 30.1094C236.906 30.8073 236.104 31.1562 235.172 31.1562C234.339 31.1562 233.654 30.9219 233.117 30.4531C232.586 29.9792 232.32 29.3802 232.32 28.6562C232.32 27.776 232.654 27.0938 233.32 26.6094C233.992 26.1198 234.935 25.875 236.148 25.875H237.555V25.2109C237.555 24.7057 237.404 24.3047 237.102 24.0078C236.799 23.7057 236.354 23.5547 235.766 23.5547C235.25 23.5547 234.818 23.6849 234.469 23.9453C234.12 24.2057 233.945 24.5208 233.945 24.8906H232.492C232.492 24.4688 232.641 24.0625 232.938 23.6719C233.24 23.276 233.646 22.9635 234.156 22.7344C234.672 22.5052 235.237 22.3906 235.852 22.3906C236.826 22.3906 237.589 22.6354 238.141 23.125C238.693 23.6094 238.979 24.2786 239 25.1328V29.0234C239 29.7995 239.099 30.4167 239.297 30.875V31H237.781ZM235.383 29.8984C235.836 29.8984 236.266 29.7812 236.672 29.5469C237.078 29.3125 237.372 29.0078 237.555 28.6328V26.8984H236.422C234.651 26.8984 233.766 27.4167 233.766 28.4531C233.766 28.9062 233.917 29.2604 234.219 29.5156C234.521 29.7708 234.909 29.8984 235.383 29.8984ZM248.008 27.3281H246.992V31H245.547V27.3281H244.531L242.164 31H240.336L243.359 26.625L240.625 22.5469H242.375L244.555 26.0469H245.547V22.5469H246.992V26.0469H247.977L250.172 22.5469H251.922L249.18 26.6328L252.203 31H250.375L248.008 27.3281ZM256.867 31.1562C255.721 31.1562 254.789 30.7812 254.07 30.0312C253.352 29.276 252.992 28.2682 252.992 27.0078V26.7422C252.992 25.9036 253.151 25.1562 253.469 24.5C253.792 23.8385 254.24 23.3229 254.812 22.9531C255.391 22.5781 256.016 22.3906 256.688 22.3906C257.786 22.3906 258.641 22.7526 259.25 23.4766C259.859 24.2005 260.164 25.237 260.164 26.5859V27.1875H254.438C254.458 28.0208 254.701 28.6953 255.164 29.2109C255.633 29.7214 256.227 29.9766 256.945 29.9766C257.456 29.9766 257.888 29.8724 258.242 29.6641C258.596 29.4557 258.906 29.1797 259.172 28.8359L260.055 29.5234C259.346 30.612 258.284 31.1562 256.867 31.1562ZM256.688 23.5781C256.104 23.5781 255.615 23.7917 255.219 24.2188C254.823 24.6406 254.578 25.2344 254.484 26H258.719V25.8906C258.677 25.1562 258.479 24.5885 258.125 24.1875C257.771 23.7812 257.292 23.5781 256.688 23.5781Z" fill="white"/>
</svg>
